var fontJSON=
{"glyphs":{"0":{"ha":890,"x_min":38,"x_max":860,"o":"m 703 1107 q 821 840 771 1056 q 850 665 840 744 q 857 519 860 586 q 819 322 854 408 q 713 175 783 236 q 578 97 650 122 q 414 71 506 71 q 129 165 240 71 q 89 227 106 185 q 63 338 72 269 q 44 473 51 400 q 38 628 38 546 q 45 799 38 719 q 67 947 53 879 q 102 1069 81 1024 q 150 1131 124 1115 q 189 1146 164 1138 q 254 1161 214 1154 q 344 1172 299 1168 q 433 1176 389 1176 q 703 1107 614 1176 m 524 1056 q 425 1089 508 1089 q 370 1084 397 1089 q 318 1063 343 1079 q 294 1026 304 1054 q 285 936 285 999 q 291 790 285 874 q 311 596 297 706 q 338 435 325 511 q 364 293 351 360 q 390 224 374 253 q 432 176 406 196 q 462 162 446 165 q 494 158 478 158 q 565 246 540 160 q 590 500 590 332 q 584 671 590 585 q 567 849 578 757 q 546 987 556 936 q 524 1056 536 1038 z "},"1":{"ha":403,"x_min":7,"x_max":389,"o":"m 389 1172 q 363 818 376 1093 q 336 75 350 543 l 7 75 l 56 410 q 80 620 72 529 q 88 776 88 711 q 84 867 88 832 q 65 924 81 901 q 43 947 54 942 q 21 958 32 953 l 11 1131 l 389 1172 z "},"2":{"ha":1017,"x_min":32,"x_max":992,"o":"m 818 860 l 360 438 q 546 393 406 393 q 745 413 633 393 q 992 475 857 432 l 904 189 l 118 78 l 111 397 l 575 869 q 422 917 540 917 q 312 910 375 917 q 169 889 249 904 l 32 860 q 59 926 47 897 q 81 984 71 956 q 99 1045 90 1013 q 121 1124 108 1078 l 254 1161 q 347 1181 303 1174 q 431 1188 390 1188 q 553 1176 492 1188 q 686 1142 615 1165 q 719 1115 701 1136 q 754 1054 738 1094 q 775 1002 767 1024 q 790 960 783 981 q 803 916 797 939 q 818 860 810 893 z "},"3":{"ha":876,"x_min":-6,"x_max":857,"o":"m 494 783 q 632 736 568 763 q 740 672 696 710 q 800 606 776 642 q 837 532 824 569 q 853 458 850 494 q 853 388 857 421 q 685 139 836 218 q 553 97 626 111 q 390 82 481 82 q 281 87 338 82 q 179 103 224 92 l 15 400 q 188 366 108 376 q 333 356 267 356 q 477 383 433 356 q 531 464 521 411 q 532 556 539 513 q 496 621 525 599 q 444 655 475 639 q 371 679 413 671 q 276 695 324 689 q 185 703 229 701 q 254 769 207 724 q 401 879 301 814 q 523 949 460 918 q 644 1003 586 979 q 597 1014 618 1014 q 546 1014 575 1014 q 453 1006 503 1014 q 338 981 403 997 q 202 939 292 969 q -6 863 113 908 q 33 956 18 919 q 57 1024 47 993 q 75 1086 67 1054 q 94 1165 83 1118 q 306 1194 203 1185 q 510 1203 408 1203 q 768 1171 675 1203 q 808 1057 808 1153 q 801 960 808 1007 q 783 886 794 914 q 717 885 761 889 q 626 863 672 881 q 551 827 589 847 q 494 783 513 807 z "},"4":{"ha":978,"x_min":31,"x_max":947,"o":"m 804 757 l 757 481 q 795 483 775 483 q 835 485 815 483 q 889 490 864 488 q 943 494 914 492 l 947 407 q 925 368 943 375 q 831 342 881 351 q 735 326 781 333 q 722 285 724 308 q 719 226 721 263 l 726 85 l 326 67 q 327 120 324 86 q 343 207 331 154 q 359 262 351 240 q 372 299 367 283 q 381 328 378 315 q 385 354 385 340 q 289 338 336 344 q 193 332 242 332 q 82 368 104 332 q 31 868 31 471 l 33 1128 l 419 1199 q 403 1060 422 1143 q 340 850 383 976 q 302 732 319 785 q 274 635 285 679 q 258 554 263 592 q 257 483 254 517 q 283 472 264 476 q 324 467 303 467 q 360 467 339 467 q 402 472 381 468 q 444 484 424 476 q 478 504 464 492 q 496 595 485 511 q 518 824 507 679 q 554 1106 546 1106 l 719 1097 q 798 1082 768 1090 q 843 1063 828 1074 q 835 949 846 1022 q 804 757 825 875 z "},"5":{"ha":972,"x_min":14,"x_max":950,"o":"m 506 867 q 343 928 413 910 q 210 942 274 946 q 208 890 207 919 q 214 826 210 860 q 224 760 218 793 q 236 701 229 728 q 333 701 281 701 q 442 696 386 700 q 553 684 497 692 q 661 663 608 676 q 761 631 718 647 q 836 596 804 615 q 890 552 868 576 q 926 497 913 528 q 946 426 942 463 q 944 353 950 389 q 924 285 939 317 q 886 228 908 253 q 805 168 858 197 q 660 117 751 139 q 515 90 594 101 q 340 72 436 79 l 178 65 l 14 332 q 379 253 231 253 q 524 290 478 253 q 551 386 551 315 q 542 442 551 422 q 301 497 513 497 q 208 494 254 497 q 114 492 161 492 q 72 501 67 492 q 80 617 78 532 q 83 843 82 703 q 76 1138 83 1136 q 122 1146 100 1144 q 167 1150 143 1147 q 279 1153 225 1154 q 392 1150 333 1153 q 555 1140 471 1147 q 715 1124 639 1133 q 708 1017 713 1074 q 693 896 703 961 q 681 810 686 839 q 672 785 675 782 q 590 826 631 806 q 506 867 549 847 z "},"6":{"ha":978,"x_min":21,"x_max":949,"o":"m 931 722 q 945 667 942 699 q 949 600 949 636 q 899 306 949 460 q 793 99 850 149 q 521 49 733 49 q 334 63 406 49 q 226 106 263 76 q 31 629 21 274 q 51 811 33 729 q 103 964 69 893 q 267 1146 164 1092 q 358 1153 311 1149 q 447 1160 406 1157 q 522 1168 486 1163 q 594 1178 558 1174 l 476 1064 q 397 951 421 1006 q 372 844 372 896 q 374 814 372 829 q 383 783 376 799 q 491 822 443 811 q 594 836 539 832 q 708 831 653 840 q 815 801 763 821 q 931 722 915 767 m 501 186 q 527 190 517 186 q 540 196 538 193 q 560 256 550 208 q 586 388 571 303 q 608 529 600 472 q 615 615 615 586 q 600 629 615 622 q 557 639 585 636 q 486 644 521 642 q 415 647 451 647 q 256 626 286 647 q 224 429 224 607 q 224 344 224 383 q 235 274 225 306 q 260 247 235 263 q 336 217 286 231 q 429 194 388 203 q 501 186 471 186 z "},"7":{"ha":876,"x_min":36,"x_max":843,"o":"m 692 688 l 439 50 q 360 48 401 47 q 269 54 318 49 q 162 72 199 61 q 106 94 125 82 q 219 282 140 163 q 421 583 299 401 q 562 815 508 714 q 635 988 615 917 q 496 973 569 990 q 331 917 422 956 q 133 822 199 860 q 50 776 68 783 q 40 844 44 792 q 36 975 36 896 q 37 1061 36 1022 q 40 1151 38 1100 q 206 1170 119 1163 q 378 1178 293 1178 q 639 1167 522 1178 q 843 1135 756 1156 q 784 942 822 1054 q 692 688 746 831 z "},"8":{"ha":1029,"x_min":17,"x_max":1006,"o":"m 576 1050 q 519 1047 546 1049 q 464 1040 493 1046 q 422 1016 436 1035 q 407 953 407 997 q 410 890 407 929 q 418 808 413 850 q 428 751 422 774 q 446 707 435 728 q 468 695 451 697 q 522 690 485 693 l 610 690 q 651 691 632 690 q 689 697 669 692 q 724 728 713 704 q 736 801 736 753 q 735 863 736 833 q 731 924 735 892 q 722 981 728 951 q 707 1029 715 1010 q 698 1042 703 1039 q 667 1047 693 1044 q 622 1051 643 1050 q 576 1050 600 1051 m 926 876 q 922 842 926 864 q 904 794 917 819 q 870 742 892 768 q 815 694 849 715 q 788 674 794 683 q 781 657 781 664 q 799 639 782 646 q 847 618 817 632 q 908 595 890 603 q 939 576 925 588 q 987 520 968 557 q 1006 453 1006 483 q 990 360 1004 401 q 950 272 976 319 q 768 92 881 161 q 658 50 719 64 q 518 36 597 36 q 426 40 471 36 q 336 54 381 43 q 256 81 292 67 q 188 122 221 94 q 93 227 128 171 q 58 358 58 283 q 64 402 58 378 q 84 452 69 426 q 124 502 99 478 q 189 547 149 526 q 239 572 217 563 q 258 593 261 582 q 239 604 256 604 q 192 614 222 604 q 131 638 151 629 q 90 661 110 647 q 40 713 63 682 q 19 789 17 743 q 46 922 22 860 q 122 1040 69 985 q 258 1137 182 1103 q 433 1178 335 1171 q 547 1178 496 1182 q 640 1163 597 1174 q 717 1135 682 1151 q 782 1099 751 1118 q 838 1058 811 1079 q 883 1010 864 1036 q 915 951 903 983 q 926 876 926 918 m 236 297 q 247 241 236 257 q 288 217 258 225 q 398 200 344 201 q 504 199 451 199 q 549 200 533 197 q 574 209 565 203 q 585 224 582 215 q 593 243 589 232 q 619 335 610 286 q 628 429 628 385 q 613 492 628 472 q 567 517 599 511 q 467 526 514 525 q 364 525 421 526 q 321 522 338 524 q 293 513 304 519 q 276 496 282 507 q 264 467 269 485 q 244 382 251 424 q 236 297 236 340 z "},"9":{"ha":979,"x_min":36,"x_max":947,"o":"m 911 875 q 943 582 947 718 q 832 194 932 326 q 747 115 794 146 q 633 61 699 83 q 561 44 601 50 q 493 38 521 38 q 441 99 461 72 q 409 144 421 125 q 392 175 397 163 q 388 194 388 188 q 435 221 410 206 q 487 254 461 236 q 537 293 513 272 q 581 335 561 314 q 622 399 606 367 q 635 454 638 432 q 522 381 589 400 q 371 357 456 363 q 260 366 313 354 q 160 397 208 378 q 83 440 111 418 q 46 490 54 463 q 39 519 42 503 q 36 569 36 536 q 46 713 36 636 q 78 875 56 790 q 129 1029 103 974 q 185 1108 156 1085 q 309 1165 235 1147 q 485 1182 383 1182 q 700 1160 606 1182 q 825 1090 797 1135 q 871 1002 850 1056 q 911 875 892 949 m 656 985 q 588 1062 619 1042 q 538 1079 557 1082 q 489 1059 518 1076 q 419 1000 460 1042 q 356 917 375 951 q 331 856 336 883 q 319 771 322 818 q 317 682 317 724 q 324 539 317 589 q 354 478 331 489 q 438 497 382 467 q 572 604 493 526 q 642 682 615 647 q 683 744 668 717 q 703 792 697 772 q 713 828 710 813 q 703 892 717 851 q 656 985 690 932 z "},"p":{"ha":885,"x_min":15,"x_max":857,"o":"m 432 714 q 419 696 424 706 q 410 674 414 686 q 406 644 407 661 q 406 600 406 626 q 406 571 406 583 q 406 548 406 558 q 408 527 407 538 q 410 501 408 517 q 417 448 413 471 q 432 418 421 425 q 474 399 447 407 q 533 390 501 390 q 601 392 567 390 q 668 410 636 394 q 688 425 681 415 q 699 452 694 435 q 704 497 703 469 q 706 567 706 525 q 697 656 706 618 q 671 710 688 693 q 626 734 654 728 q 567 740 599 740 q 483 735 517 740 q 432 714 449 731 m 35 839 q 50 855 35 847 q 88 867 65 863 q 139 876 111 872 q 193 883 167 881 q 297 890 243 889 q 410 890 351 890 q 651 872 550 890 q 804 818 753 854 q 840 731 822 800 q 857 539 857 661 q 855 442 857 488 q 846 347 853 396 q 835 297 843 325 q 803 258 826 268 q 713 240 767 243 q 572 236 660 236 q 469 239 519 236 q 374 248 418 242 q 292 263 329 254 q 229 283 254 271 q 233 134 233 214 q 233 -21 233 54 q 229 -158 232 -96 q 224 -250 226 -219 l 15 -250 q 24 -139 19 -185 q 31 -56 28 -93 q 35 13 33 -19 q 38 86 38 46 q 40 179 39 126 q 40 307 40 232 q 40 448 40 381 q 38 580 39 515 q 35 708 36 644 q 35 839 35 772 z "},"o":{"ha":813,"x_min":22,"x_max":788,"o":"m 231 722 q 215 674 221 701 q 208 597 208 647 q 213 493 208 543 q 229 396 218 443 q 253 318 239 346 q 281 285 267 290 q 388 265 333 265 q 467 286 440 265 q 506 350 494 307 q 540 524 535 449 q 546 638 546 599 q 537 705 546 685 q 500 735 528 725 q 447 746 476 743 q 388 749 418 749 q 328 749 357 750 q 276 746 300 747 q 242 736 250 743 q 231 722 235 729 m 69 818 q 197 872 114 858 q 403 889 281 885 q 486 891 449 892 q 568 885 524 890 q 663 867 621 878 q 717 849 704 856 q 788 607 788 803 q 778 451 788 528 q 747 296 768 374 q 696 153 724 211 q 636 60 668 96 q 367 -35 547 -35 q 276 -28 318 -35 q 193 -7 233 -22 q 133 24 156 4 q 103 60 110 44 q 43 299 71 136 q 26 462 31 386 q 22 607 22 538 q 34 744 22 690 q 69 818 46 799 z "},"n":{"ha":792,"x_min":-31,"x_max":769,"o":"m 94 768 l 360 828 q 356 817 358 825 q 351 797 353 808 q 346 774 349 786 q 342 753 343 761 q 337 717 338 729 q 335 689 336 706 q 449 685 390 689 q 575 669 508 681 q 631 658 608 664 q 669 647 654 653 q 696 633 685 640 q 717 619 707 626 q 769 383 769 581 q 765 256 769 321 q 749 125 760 192 q 733 53 740 83 q 714 -4 725 22 q 658 -9 690 -7 q 596 -11 626 -11 q 534 -8 567 -11 q 488 -1 501 -6 q 490 69 489 46 q 492 106 492 92 q 494 133 493 119 q 494 175 494 146 q 495 226 494 194 q 496 295 496 258 q 495 371 496 332 q 491 442 494 410 q 483 499 488 475 q 469 529 478 522 l 336 519 q 329 492 333 514 q 321 438 325 469 q 313 368 317 406 q 308 294 310 331 q 303 187 303 236 q 306 76 304 138 q 308 10 307 36 q 313 -43 310 -17 l -31 -60 l 39 278 q 85 547 68 438 q 97 721 101 656 l 94 768 z "},"g":{"ha":775,"x_min":29,"x_max":776,"o":"m 525 978 q 675 967 610 981 q 776 938 740 953 q 767 899 772 918 q 758 860 763 881 q 748 815 753 840 q 738 758 743 790 q 731 720 733 735 q 727 688 729 706 q 722 644 725 669 q 717 574 719 618 q 713 482 714 532 q 715 388 713 432 q 721 281 718 333 q 725 175 724 229 q 717 1 728 65 q 688 -85 706 -64 q 607 -109 679 -93 q 396 -146 535 -125 l 92 -186 q 81 -154 86 -171 q 70 -119 75 -139 q 58 -76 65 -100 q 41 26 43 -14 q 42 93 39 67 q 53 147 46 128 q 72 178 61 165 q 125 164 94 171 q 188 150 156 157 q 291 135 250 139 q 353 131 332 131 q 377 130 364 131 q 401 131 390 129 q 380 85 393 108 q 358 47 367 63 q 333 9 343 19 q 314 -15 324 -1 q 357 -22 332 -21 q 401 -22 382 -22 q 476 10 467 -22 q 494 99 492 51 q 496 224 496 147 q 495 275 496 249 q 492 301 494 301 q 361 301 411 301 q 275 304 311 301 q 158 320 201 308 q 97 349 114 332 q 29 529 29 425 q 35 602 29 557 q 51 697 40 647 q 78 796 63 747 q 113 879 93 844 q 149 913 125 901 q 217 924 172 924 q 285 922 253 924 q 353 917 317 919 q 433 910 390 914 q 507 900 475 906 q 508 910 507 900 q 510 932 508 919 q 516 958 513 944 q 525 978 519 971 m 492 792 q 353 772 386 796 q 315 586 315 736 q 338 436 315 493 q 353 428 347 432 q 371 419 360 424 q 425 404 392 413 q 490 394 458 396 q 486 449 488 425 q 484 496 485 474 q 483 540 483 518 q 483 588 483 561 q 486 708 483 656 q 492 792 489 760 z "},"e":{"ha":794,"x_min":25,"x_max":778,"o":"m 93 890 q 379 961 138 961 q 551 953 479 961 q 667 926 624 946 q 750 739 713 901 q 775 542 775 611 l 775 533 q 740 512 778 526 q 622 481 703 497 q 443 453 531 461 q 272 444 356 444 l 181 450 l 181 425 q 188 373 181 401 q 210 331 194 344 l 410 318 l 474 317 q 478 325 478 317 l 474 351 l 468 376 q 578 393 525 383 q 701 403 632 403 q 741 401 729 403 q 764 396 753 399 l 672 93 l 589 89 l 386 83 q 164 99 244 83 q 61 150 83 114 q 25 411 25 196 q 30 558 25 486 q 43 699 35 629 q 93 890 63 844 m 168 719 q 163 681 163 707 q 163 644 163 663 q 165 607 163 625 q 183 558 169 575 q 267 540 199 540 q 333 542 303 540 q 393 549 364 543 q 444 566 425 556 q 468 588 463 576 q 473 613 472 597 q 474 653 474 629 q 458 710 474 694 q 394 733 447 725 q 333 740 358 738 q 282 742 307 742 q 168 719 179 742 z "},"B":{"ha":874,"x_min":32,"x_max":861,"o":"m 56 1138 l 413 1161 q 503 1163 458 1163 q 610 1156 547 1163 q 635 1151 618 1154 q 670 1140 651 1147 q 708 1119 689 1132 q 744 1089 728 1107 q 768 1053 756 1076 q 790 990 781 1029 q 800 919 799 956 q 800 863 801 883 q 794 801 797 826 q 783 735 792 775 q 767 680 776 703 q 740 638 757 657 q 663 606 704 619 q 583 581 622 592 q 510 565 544 571 q 450 557 475 558 l 586 526 q 695 490 644 511 q 789 440 746 468 q 833 307 817 382 q 856 139 849 232 l 861 -40 q 683 -53 782 -44 q 474 -74 583 -62 q 252 -98 365 -85 q 32 -122 139 -111 l 56 1138 m 247 1029 l 247 653 l 290 651 l 353 651 q 443 672 428 651 q 460 724 454 682 q 465 822 465 765 q 456 951 465 904 q 436 1017 447 999 q 374 1031 428 1031 l 247 1029 m 410 156 q 543 163 483 158 q 671 179 603 168 q 666 222 669 200 q 658 264 663 243 q 640 331 650 310 q 615 368 631 353 q 597 378 607 374 q 567 388 586 383 q 514 396 547 392 q 429 404 481 400 l 197 415 l 190 158 l 281 154 q 345 153 308 153 q 410 156 382 154 z "},"b":{"ha":842,"x_min":3,"x_max":815,"o":"m 3 1092 q 95 1094 50 1092 q 190 1103 140 1097 q 333 1120 285 1113 q 382 1135 382 1128 q 369 1067 379 1128 q 344 885 360 1006 l 303 565 l 472 596 q 592 611 525 603 q 713 619 660 619 q 793 593 769 619 q 810 549 806 579 q 815 469 815 518 q 810 351 815 415 q 794 210 804 288 q 771 88 785 135 q 746 17 757 40 q 660 -50 726 -25 q 475 -75 594 -75 q 267 -62 379 -75 q 21 -22 154 -49 q 36 95 32 14 q 40 307 40 176 q 38 529 40 415 q 28 767 35 643 q 3 1092 17 1006 m 235 411 q 193 354 207 399 q 179 211 179 310 q 181 161 179 182 q 190 124 183 140 q 203 112 193 117 q 226 106 214 107 q 286 103 257 103 q 347 107 315 104 q 413 115 381 110 q 467 126 446 119 q 504 160 493 136 q 521 251 515 185 q 522 332 524 293 q 508 394 519 371 q 494 408 506 400 q 458 421 483 415 q 401 430 426 428 q 347 432 375 432 q 281 426 307 432 q 235 411 254 419 z "},"H":{"ha":919,"x_min":32,"x_max":883,"o":"m 342 1135 l 342 522 l 658 515 l 654 1128 l 832 1138 l 883 -67 l 667 -69 l 656 281 l 457 281 l 463 -85 l 32 -65 l 53 1158 l 342 1135 z "},"h":{"ha":765,"x_min":19,"x_max":733,"o":"m 365 1229 q 336 1060 357 1217 l 308 829 q 426 847 368 840 q 546 854 485 854 q 681 824 665 854 q 722 585 708 769 q 731 426 728 507 q 733 258 733 346 q 731 116 733 167 q 722 51 728 65 q 692 40 718 44 q 626 35 667 35 q 550 40 575 35 q 514 51 525 44 q 530 131 524 99 q 540 199 536 164 q 545 278 543 233 q 550 394 547 322 q 549 475 551 439 q 543 517 546 511 q 350 542 524 542 l 246 525 q 231 455 239 496 q 219 356 224 414 q 212 240 214 293 q 213 143 210 186 q 113 137 150 140 q 65 126 75 133 q 51 276 57 150 q 39 633 46 401 q 30 1015 35 878 q 19 1189 25 1153 l 189 1200 q 365 1229 360 1214 z "},"i":{"ha":392,"x_min":18,"x_max":372,"o":"m 313 1128 l 311 1101 q 349 860 311 1031 l 18 819 q 59 1085 46 992 q 69 1197 72 1179 l 313 1128 m 372 703 q 344 447 358 625 q 315 -15 331 268 l 67 -15 l 38 669 l 372 703 z "},"l":{"ha":407,"x_min":29,"x_max":406,"o":"m 151 1176 q 272 1194 213 1176 q 406 1249 331 1213 q 376 1109 389 1210 q 356 849 364 1008 q 344 473 347 689 q 340 -11 340 257 l 72 -11 l 29 1206 q 84 1184 53 1192 q 151 1176 115 1176 z "},"r":{"ha":738,"x_min":24,"x_max":714,"o":"m 714 817 q 701 702 710 786 q 678 476 693 618 q 513 507 586 492 q 385 522 440 522 q 317 517 343 522 q 283 501 290 513 l 256 13 l 58 13 l 24 840 l 313 875 l 307 776 l 714 817 z "},"t":{"ha":735,"x_min":18,"x_max":717,"o":"m 18 983 l 171 968 l 151 1156 l 460 1178 l 436 951 l 717 935 l 703 686 q 419 690 553 682 q 409 376 413 550 q 408 -10 406 201 l 199 -10 l 179 601 l 24 613 l 18 983 z "},"u":{"ha":867,"x_min":19,"x_max":849,"o":"m 799 881 q 816 820 807 857 q 833 731 825 783 q 844 608 840 668 q 849 492 849 549 q 710 118 849 161 q 556 80 633 93 q 388 67 479 67 q 88 151 179 67 q 36 268 53 182 q 19 494 19 354 q 22 610 19 547 q 31 744 24 674 l 38 849 l 331 897 q 339 869 338 885 q 340 833 340 853 q 331 745 340 801 q 301 606 322 689 q 272 466 282 522 q 263 378 263 410 q 276 315 263 335 q 319 289 290 296 q 407 276 364 278 q 499 278 450 275 q 595 288 561 281 q 638 310 629 294 q 651 374 653 338 q 647 410 651 386 q 637 460 643 433 q 623 515 631 488 q 606 565 615 543 q 568 654 586 610 q 526 742 550 699 q 505 779 515 761 q 483 817 494 797 q 564 864 471 824 q 658 897 617 888 q 731 906 699 906 q 799 881 782 906 z "},"ยง":{"ha":767,"x_min":15,"x_max":747,"o":"m 747 943 q 722 739 747 864 q 689 629 696 618 l 614 654 q 539 678 572 668 q 478 692 506 688 q 474 706 475 694 q 475 742 472 718 q 475 792 479 792 q 339 772 372 796 q 301 586 301 736 q 324 436 301 493 q 344 428 333 432 q 367 417 356 424 q 494 390 421 397 l 472 490 q 461 554 463 531 q 463 589 460 578 l 588 576 l 697 551 l 704 390 l 710 175 q 674 -85 710 -42 q 593 -109 665 -93 q 382 -146 521 -125 l 78 -186 q 72 -164 76 -178 q 65 -136 69 -153 q 58 -96 61 -119 q 42 1 47 -43 q 38 82 38 46 q 42 141 38 117 q 58 178 47 165 l 183 153 q 288 132 251 136 q 344 128 324 128 l 388 131 l 354 57 l 314 -15 l 336 -19 l 388 -22 q 463 7 454 -22 q 488 110 478 49 q 497 249 497 172 q 492 301 497 301 q 354 301 411 301 q 261 304 297 301 q 144 320 188 308 q 83 349 100 332 q 15 529 15 425 q 99 879 15 639 q 203 924 117 924 l 343 913 l 492 900 q 503 932 499 900 q 506 956 503 947 q 511 965 508 965 q 653 963 596 968 q 747 943 711 958 z "}," ":{"ha":431,"x_min":0,"x_max":0,"o":""},"q":{"ha":908,"x_min":17,"x_max":924,"o":"m 828 719 q 846 653 838 688 q 859 586 854 618 q 866 526 864 554 q 868 482 868 499 q 842 381 867 429 q 806 330 826 353 q 753 293 785 307 q 861 207 797 243 q 901 185 885 193 q 924 175 917 176 q 875 133 900 151 q 826 94 850 114 q 745 33 775 53 q 706 11 715 13 q 688 27 697 18 q 668 47 679 36 q 619 101 644 72 q 569 163 594 129 q 553 124 561 146 q 540 75 546 103 q 504 17 532 32 q 459 5 485 10 q 400 0 433 0 q 314 5 361 0 q 222 17 267 10 q 142 36 178 25 q 93 60 107 47 q 60 124 74 83 q 39 224 47 165 q 29 319 32 260 q 24 461 26 378 q 154 839 17 763 q 299 885 207 869 q 524 901 390 901 q 744 863 721 901 q 792 799 772 831 q 828 719 813 768 m 575 732 q 335 726 414 732 q 238 696 257 721 q 214 653 226 678 q 190 597 201 628 q 164 457 164 519 q 197 350 164 385 q 356 311 229 311 l 458 325 l 411 386 q 378 431 390 414 q 365 457 365 449 l 513 560 l 574 469 q 610 429 606 425 q 647 619 647 539 q 575 732 647 732 z "},"c":{"ha":821,"x_min":17,"x_max":803,"o":"m 803 460 q 701 418 803 418 q 642 421 672 418 q 581 429 613 424 q 519 444 522 440 q 535 470 526 451 q 547 513 543 489 q 561 632 561 586 q 526 645 547 635 q 474 675 506 656 q 424 701 447 692 q 372 701 401 711 q 317 465 340 688 q 300 178 293 263 q 322 129 304 129 q 388 134 357 129 q 447 146 418 139 q 473 154 463 149 q 489 172 483 160 l 497 228 q 515 256 501 256 l 774 276 l 803 58 l 617 25 q 407 -4 500 6 q 243 -14 314 -14 q 40 39 78 -14 q 22 100 28 57 q 17 210 17 143 q 21 352 17 276 q 36 515 25 428 q 56 635 46 590 q 78 700 65 679 q 192 788 117 760 q 390 817 268 817 q 553 803 479 817 q 690 772 628 790 q 767 632 733 760 q 778 588 772 613 q 788 540 783 564 q 797 495 793 517 q 803 460 800 474 z "},"k":{"ha":811,"x_min":17,"x_max":817,"o":"m 383 1250 q 342 918 382 1239 l 301 522 q 341 524 321 525 q 382 519 361 524 l 535 868 l 660 822 q 813 682 785 763 q 675 563 817 664 q 568 485 604 510 q 535 454 532 460 q 731 194 667 311 q 794 -14 794 78 l 667 0 q 528 28 535 15 q 472 285 497 200 q 432 383 447 371 q 402 399 426 390 q 329 411 378 408 q 259 408 285 414 q 229 392 233 403 q 249 260 228 356 q 315 7 271 165 l 67 -14 q 51 158 58 14 q 40 571 43 301 q 29 1011 35 854 q 17 1206 24 1168 l 197 1219 q 383 1250 382 1233 z "},"!":{"ha":379,"x_min":42,"x_max":360,"o":"m 42 1203 q 299 1265 200 1265 q 351 1229 360 1265 q 309 964 326 1099 q 283 690 292 829 l 257 378 l 224 376 l 158 372 q 81 393 81 372 q 99 531 92 463 q 106 669 106 599 q 42 1203 106 850 m 274 186 q 331 25 274 132 l 54 25 q 65 160 63 108 q 65 232 67 213 l 274 186 z "},"w":{"ha":1335,"x_min":14,"x_max":1326,"o":"m 14 792 l 272 822 q 297 699 286 786 q 319 474 308 611 q 336 276 326 343 q 354 206 346 210 q 376 197 361 199 q 410 196 390 196 l 492 206 q 524 406 513 311 q 535 585 535 501 q 497 779 535 742 l 690 793 l 879 807 l 863 717 q 858 672 860 693 q 857 631 857 650 q 859 574 857 607 q 867 504 861 542 q 881 427 872 467 q 903 350 890 388 l 1032 357 q 1063 418 1046 372 q 1101 546 1081 464 q 1131 678 1124 629 q 1139 764 1139 728 l 1136 811 l 1136 813 l 1176 819 q 1326 776 1261 819 l 1326 751 q 1297 604 1326 699 q 1213 375 1268 510 q 1032 11 1110 118 q 976 8 1008 10 q 899 8 944 6 q 863 10 878 10 q 834 12 847 11 q 807 14 821 13 q 774 17 793 15 q 754 88 763 28 q 748 149 750 121 q 740 197 746 178 q 712 199 725 200 q 683 194 699 197 q 669 159 676 183 q 651 99 661 135 q 632 48 642 67 q 614 21 622 29 q 538 15 578 19 q 436 11 499 11 q 378 12 400 11 q 340 14 357 13 q 307 17 324 15 q 265 21 290 18 q 101 439 192 86 l 14 792 z "},"f":{"ha":553,"x_min":26,"x_max":563,"o":"m 26 1064 q 99 1097 46 1078 q 224 1135 151 1117 q 385 1171 297 1154 q 563 1197 472 1188 q 553 1030 556 1113 q 554 878 551 947 q 419 888 483 885 q 292 893 356 892 q 288 901 289 893 q 288 920 288 910 q 290 940 289 931 q 292 953 292 949 l 179 954 l 185 528 q 348 521 274 524 q 503 521 422 518 l 496 371 l 440 374 l 343 379 q 308 371 308 379 q 300 28 296 146 l 50 28 l 26 1064 z "},"x":{"ha":869,"x_min":-56,"x_max":921,"o":"m 15 829 q 44 840 19 833 q 101 856 68 847 q 173 871 135 864 q 243 882 211 878 l 415 694 l 579 894 l 804 717 q 732 678 764 696 q 673 644 700 661 q 620 608 646 628 q 565 564 594 589 l 921 60 l 610 40 l 472 358 l 283 40 l -56 57 l 325 515 q 253 599 300 551 q 142 710 206 647 l 15 829 z "},"j":{"ha":607,"x_min":35,"x_max":578,"o":"m 322 1249 q 390 1253 333 1246 q 549 1279 446 1260 q 556 1154 549 1219 q 578 1001 563 1089 l 267 978 q 310 1165 296 1096 q 322 1249 324 1233 m 240 832 q 315 806 278 817 q 392 796 351 796 q 490 813 444 796 q 572 863 536 831 q 547 525 561 788 q 519 -190 533 263 l 156 -347 l 35 21 q 83 10 49 18 q 176 -19 118 1 q 272 -43 233 -39 q 331 -47 311 -47 q 374 -25 374 -47 q 354 167 371 43 q 304 478 338 292 l 240 832 z "},"m":{"ha":1288,"x_min":43,"x_max":1244,"o":"m 43 746 q 140 750 89 747 q 238 756 192 753 q 322 765 285 760 q 378 774 360 769 q 375 767 376 771 q 373 751 374 763 q 371 717 372 739 q 367 657 369 694 q 535 747 411 713 q 631 767 583 763 q 749 768 679 772 q 778 708 765 742 q 800 643 790 675 q 859 688 817 665 q 968 738 901 711 q 1073 767 1026 761 q 1163 771 1119 774 q 1185 734 1171 764 q 1210 656 1200 704 q 1240 386 1236 521 q 1242 140 1244 251 q 1237 58 1240 101 q 1222 -31 1233 14 q 1197 -47 1214 -40 q 1154 -54 1181 -53 q 1089 -49 1118 -56 q 1040 -35 1060 -43 q 1050 66 1047 6 q 1053 206 1053 126 q 1052 263 1053 235 q 1051 314 1051 290 q 1048 356 1050 338 q 1043 382 1046 374 q 1013 394 1040 389 q 940 400 985 400 q 836 392 868 400 q 801 376 804 385 q 792 301 799 357 q 782 176 786 246 q 774 53 778 106 q 774 -53 771 0 q 669 -67 719 -62 q 551 -68 618 -71 q 485 -62 515 -67 q 428 -42 456 -57 q 459 42 446 -26 q 488 228 472 110 q 495 305 492 263 q 501 388 499 347 q 503 463 503 428 q 504 518 504 497 q 468 526 497 524 q 385 525 439 529 q 303 512 333 521 q 268 496 272 503 q 257 435 265 481 q 243 300 249 389 q 239 217 240 257 q 236 138 238 178 q 234 54 235 97 q 233 -39 233 11 q 127 -44 168 -40 q 83 -56 86 -47 q 83 70 85 -21 q 75 313 82 161 q 60 583 68 476 q 43 746 53 690 z "},"s":{"ha":725,"x_min":-39,"x_max":699,"o":"m 590 892 q 625 825 606 869 q 656 706 644 781 q 591 706 618 706 q 544 708 564 707 q 508 709 524 708 q 476 710 492 710 q 351 694 394 710 q 317 644 307 679 q 347 610 322 625 q 421 561 371 596 q 523 488 479 521 q 599 422 567 454 q 674 320 649 371 q 690 208 699 269 q 667 156 686 179 q 619 114 647 132 q 558 85 590 96 q 497 69 526 74 q 398 58 457 63 q 274 54 339 54 q 189 56 236 54 q 97 59 142 57 q 18 63 53 61 q -31 68 -17 65 q -39 92 -39 72 q -31 151 -39 111 q -9 238 -22 190 q 22 335 4 286 q 61 424 40 385 q 207 367 136 386 q 324 349 278 349 q 382 364 364 349 q 403 410 400 379 q 397 444 404 428 q 378 473 390 460 q 350 497 365 486 q 318 517 335 507 q 223 571 264 549 q 158 613 182 593 q 74 754 74 681 q 87 821 74 794 q 123 864 100 847 q 176 889 146 881 q 240 901 207 897 q 348 908 290 908 q 456 906 406 908 q 544 898 507 903 q 590 892 582 893 z "},"v":{"ha":861,"x_min":-14,"x_max":854,"o":"m -14 894 l 276 944 q 313 828 296 886 q 350 713 331 771 q 407 547 375 638 q 479 371 439 457 q 501 420 488 385 q 530 502 515 456 q 559 600 544 549 q 583 696 574 651 q 608 819 601 775 q 615 875 614 863 q 721 894 640 894 q 792 887 758 894 q 854 856 825 879 q 822 691 854 801 q 726 431 789 581 q 628 215 672 301 q 553 79 585 128 l 392 99 l 269 117 q 93 561 211 192 l -14 894 z "},"a":{"ha":831,"x_min":22,"x_max":806,"o":"m 22 682 q 28 714 25 696 q 35 758 31 732 q 44 822 39 785 q 56 911 49 858 q 99 930 71 922 q 178 947 128 938 q 287 961 236 958 q 390 964 338 964 q 563 952 494 964 q 671 919 631 940 q 686 888 678 907 q 703 840 694 869 q 724 769 713 811 q 747 669 735 728 q 806 246 806 407 q 795 134 806 175 q 757 74 785 93 q 688 54 744 65 q 525 32 631 43 l 501 89 l 271 72 q 83 111 111 72 q 63 222 71 126 q 57 314 58 269 q 56 400 56 358 q 72 483 56 463 q 93 500 78 492 q 136 515 108 508 q 206 528 164 522 q 306 538 247 533 q 407 544 360 542 q 490 549 454 546 q 549 556 526 553 q 579 567 572 560 q 577 614 579 593 q 568 658 575 635 q 554 696 561 681 q 536 732 547 711 q 522 742 533 739 q 499 746 511 746 q 434 735 475 746 q 331 706 393 725 l 340 639 q 312 633 329 633 q 275 632 294 632 q 200 635 239 632 q 113 650 161 639 q 47 670 69 661 q 22 682 25 679 m 376 236 q 408 212 382 221 q 485 203 435 203 q 617 236 593 203 q 642 375 642 267 q 639 411 642 399 q 632 431 636 424 q 617 444 626 438 q 575 457 607 450 q 526 463 550 463 q 476 464 501 464 q 413 455 436 464 q 379 439 390 446 q 368 409 372 431 q 364 347 364 388 q 376 236 364 263 z "},"d":{"ha":875,"x_min":35,"x_max":847,"o":"m 461 1161 l 828 1203 q 824 1172 825 1192 q 822 1126 822 1151 q 822 1069 822 1100 q 822 1010 822 1039 q 831 699 822 850 q 844 392 839 547 q 846 258 847 311 q 838 169 844 204 q 819 113 832 133 q 783 76 806 92 q 683 43 760 61 q 475 25 606 25 q 353 28 404 25 q 263 36 301 31 q 197 48 225 42 q 147 63 169 54 q 117 108 140 68 q 76 222 94 147 q 56 307 65 264 q 40 394 46 350 q 35 479 35 438 q 46 561 36 521 q 103 646 56 607 q 235 725 151 685 q 326 764 288 751 q 394 781 364 776 q 451 785 424 785 q 511 786 479 785 q 461 1161 492 982 m 513 661 q 460 626 485 661 q 421 517 436 592 q 409 455 415 489 q 399 383 403 421 q 397 306 396 344 q 406 232 397 267 q 436 188 411 208 q 495 152 461 167 q 567 132 529 138 q 635 132 604 126 q 675 163 657 136 q 704 228 693 190 q 718 309 715 267 q 714 386 721 351 q 706 422 710 406 q 697 454 703 438 q 681 491 690 471 q 656 539 671 511 q 513 661 585 661 z "},"z":{"ha":813,"x_min":1,"x_max":847,"o":"m 72 860 q 131 841 92 851 q 217 822 171 831 q 313 807 264 813 q 400 804 363 801 q 576 828 507 811 q 693 860 646 844 l 742 661 l 424 208 q 469 198 442 201 q 521 196 496 194 q 690 226 613 200 q 847 311 767 253 l 685 -21 l 110 -35 l 54 310 q 229 417 122 350 q 463 579 336 483 q 372 615 432 603 q 244 626 311 626 q 178 621 214 626 q 109 607 143 615 q 47 590 75 599 q 1 576 18 582 q 44 722 28 646 q 72 860 60 797 z "},"y":{"ha":783,"x_min":-26,"x_max":813,"o":"m 813 796 q 744 710 796 781 q 619 532 692 640 q 460 287 547 424 q 286 3 374 150 l -3 -3 l 219 301 q 153 411 192 340 q 74 578 114 482 q 13 727 36 665 q -26 839 -10 789 q 239 946 -6 857 q 263 860 246 918 q 313 736 281 803 q 376 621 349 660 q 425 561 404 582 q 476 643 451 599 q 533 757 500 688 q 560 816 547 786 q 583 869 574 846 q 600 910 593 893 q 610 929 607 926 l 813 796 z "},"\"":{"ha":628,"x_min":40,"x_max":583,"o":"m 563 1017 q 501 864 550 1006 q 446 735 458 731 q 424 881 438 743 q 406 1024 411 1022 q 365 1142 365 1051 q 379 1199 365 1181 l 567 1192 q 583 1090 583 1147 q 563 1017 583 1033 m 54 1194 l 244 1189 q 260 1097 260 1146 q 238 1028 260 1047 q 181 876 228 1021 q 124 746 136 742 q 100 892 114 753 l 82 1035 q 40 1144 40 1065 q 54 1194 40 1176 z "},"&":{"ha":1122,"x_min":17,"x_max":1129,"o":"m 590 1006 q 531 1004 558 1006 q 476 1001 504 1003 q 418 998 449 1000 q 349 992 388 996 q 310 973 326 990 q 294 931 294 956 q 298 840 294 882 q 317 769 301 799 q 349 750 328 754 q 419 746 369 746 q 537 749 478 746 q 646 756 596 751 q 678 783 669 758 q 686 863 686 808 q 685 894 686 876 q 684 930 685 913 q 681 963 683 947 q 675 988 679 979 q 651 1001 675 996 q 590 1006 626 1006 m 619 621 q 661 599 635 614 q 719 546 688 583 q 749 507 739 522 q 765 481 760 492 q 772 463 769 471 q 778 449 774 456 q 817 480 792 460 q 876 550 843 500 q 933 624 913 599 q 960 650 953 650 q 1006 590 979 618 q 1060 532 1032 561 q 1119 436 1129 457 q 1013 379 1118 424 q 903 325 910 336 q 983 239 896 311 q 1078 144 1078 160 q 1008 63 1046 103 q 919 -17 969 24 q 829 79 906 -17 q 746 176 757 176 q 700 117 731 154 q 615 53 669 81 q 502 19 564 29 q 378 10 440 10 q 283 24 338 10 q 188 63 228 39 q 152 85 167 75 q 124 108 138 96 q 99 135 111 119 q 74 174 88 151 q 30 266 43 221 q 17 349 17 311 q 22 380 17 361 q 35 418 26 399 q 56 456 44 438 q 81 490 68 475 q 167 580 135 553 q 215 615 200 607 q 158 662 182 642 q 117 701 135 682 q 83 742 99 721 q 54 793 68 764 q 37 849 40 822 q 33 900 33 875 q 126 1079 33 1008 q 419 1165 232 1157 l 482 1168 q 769 1093 674 1168 q 838 1022 810 1063 q 872 918 865 982 q 863 831 879 871 q 806 744 846 790 q 764 703 789 725 q 713 665 739 682 q 663 635 688 647 q 619 621 638 622 m 317 494 q 244 477 265 494 q 218 422 222 460 q 211 349 214 378 q 208 300 208 319 q 207 268 207 281 q 207 246 207 256 q 220 171 207 193 q 265 144 233 149 q 351 132 307 138 q 436 126 394 126 q 489 140 474 126 q 510 179 504 154 q 522 265 517 211 q 526 367 526 319 q 515 446 526 422 q 479 475 504 469 q 401 491 440 488 q 317 494 361 494 z "},"'":{"ha":358,"x_min":68,"x_max":289,"o":"m 83 1199 l 274 1192 q 289 1090 289 1146 q 268 1017 289 1031 q 246 972 260 1010 q 207 860 232 933 q 151 729 163 725 q 142 770 149 733 q 128 878 135 807 l 110 1022 q 68 1140 68 1050 q 83 1199 68 1179 z "},"(":{"ha":546,"x_min":46,"x_max":544,"o":"m 167 1196 l 544 1238 q 453 1106 540 1208 q 358 988 399 1040 q 294 900 318 936 q 204 649 206 761 q 289 310 196 496 q 375 153 328 226 q 482 17 422 81 l 210 17 l 133 260 q 72 482 92 392 q 50 621 53 572 q 78 853 46 708 q 104 959 89 901 q 136 1083 119 1017 l 167 1196 z "},")":{"ha":557,"x_min":1,"x_max":499,"o":"m 494 626 q 451 334 490 483 q 336 25 411 185 l 64 25 q 142 123 107 74 q 210 221 178 172 q 344 656 350 467 q 317 774 340 713 q 250 904 294 836 q 188 996 226 944 q 92 1114 150 1047 q 1 1240 6 1217 l 376 1200 l 410 1103 q 443 994 429 1047 q 469 890 457 942 q 494 626 499 749 z "},",":{"ha":443,"x_min":58,"x_max":382,"o":"m 324 321 l 360 239 q 375 122 382 188 q 285 -121 363 24 q 233 -151 246 -140 q 213 -169 221 -161 l 231 -86 q 124 92 251 75 l 85 94 l 58 322 l 324 321 z "},"-":{"ha":563,"x_min":63,"x_max":497,"o":"m 497 472 l 93 464 l 63 713 l 474 722 l 469 696 q 475 603 468 658 q 497 472 482 547 z "},".":{"ha":497,"x_min":72,"x_max":422,"o":"m 422 90 l 104 75 l 72 338 l 399 350 l 393 318 q 422 90 386 235 z "},"/":{"ha":708,"x_min":-25,"x_max":732,"o":"m 372 906 q 447 1143 424 1056 q 463 1260 469 1231 l 732 1172 q 465 613 676 1121 q 302 193 356 350 q 249 -21 249 36 q 251 -40 249 -35 l -25 54 q 47 147 0 68 q 157 369 93 225 q 269 633 215 500 q 372 906 324 767 z "},":":{"ha":436,"x_min":57,"x_max":367,"o":"m 58 760 q 58 773 58 765 q 60 794 57 781 q 72 828 64 807 q 99 879 81 849 l 297 876 q 339 640 293 758 l 92 610 l 58 760 m 367 97 l 99 67 q 113 265 110 193 q 114 358 117 338 l 326 325 q 367 97 310 244 z "},";":{"ha":424,"x_min":61,"x_max":365,"o":"m 313 901 l 308 871 q 315 790 307 836 q 343 689 324 744 l 213 654 l 83 594 l 61 872 l 313 901 m 308 313 q 335 272 324 297 q 353 219 346 247 q 363 161 360 190 q 364 108 365 132 q 349 15 361 64 q 313 -92 336 -33 q 284 -126 306 -115 q 242 -150 263 -136 l 253 -69 q 233 42 256 4 q 151 79 211 79 l 117 79 q 106 127 111 99 q 97 188 101 156 q 90 253 93 219 q 82 317 86 286 l 308 313 z "},"<":{"ha":715,"x_min":39,"x_max":676,"o":"m 269 453 l 676 379 l 540 38 l 39 438 l 385 882 l 596 581 l 269 453 z "},">":{"ha":736,"x_min":42,"x_max":697,"o":"m 338 876 l 697 483 l 294 35 l 51 349 l 446 475 l 42 669 l 338 876 z "},"_":{"ha":1157,"x_min":26,"x_max":1133,"o":"m 1133 -197 q 699 -211 892 -207 q 350 -215 506 -215 q 26 -197 64 -215 l 26 -19 q 174 -36 78 -28 q 415 -44 271 -44 q 746 -36 567 -44 q 1133 -19 925 -28 l 1133 -197 z "},"?":{"ha":985,"x_min":7,"x_max":985,"o":"m 7 1046 q 99 1115 58 1090 q 176 1158 139 1139 q 294 1202 235 1189 q 399 1218 354 1215 q 533 1217 471 1222 q 645 1201 594 1211 q 735 1178 696 1190 q 800 1156 774 1165 q 825 1126 814 1140 q 847 1094 836 1111 q 871 1058 858 1078 q 899 1013 883 1038 q 953 908 931 963 q 978 824 975 853 q 959 711 985 754 q 879 639 933 668 q 789 610 839 617 q 689 589 739 603 q 640 576 661 582 q 602 562 619 569 q 570 544 585 554 q 542 518 556 533 q 508 456 522 497 q 490 369 494 414 l 426 286 q 374 357 399 321 q 335 428 350 393 q 315 491 319 464 q 313 549 310 518 q 324 586 315 564 q 350 626 332 608 q 372 642 358 635 q 399 654 385 649 q 428 663 414 660 q 450 668 442 667 q 553 679 499 676 q 651 694 608 682 q 707 719 690 706 q 726 761 724 732 q 722 844 731 797 q 689 935 714 890 q 626 1006 667 975 q 525 1046 586 1038 q 469 1045 500 1049 q 405 1031 438 1042 q 342 1000 372 1019 q 286 954 311 981 q 224 865 244 910 q 192 781 203 821 q 129 816 160 788 q 72 892 99 844 q 33 974 49 931 q 7 1046 18 1018 m 310 194 l 579 217 q 606 47 571 115 l 346 24 q 328 97 335 51 q 310 194 321 143 z "},"#":{"ha":953,"x_min":49,"x_max":910,"o":"m 135 1068 l 396 1068 l 381 851 l 554 851 l 540 1082 q 637 1110 588 1101 q 736 1125 686 1119 l 740 857 l 896 863 l 890 640 l 740 649 l 743 465 l 894 463 q 908 385 907 424 q 906 308 910 347 l 763 297 l 786 28 l 568 28 l 554 288 l 381 288 l 396 28 l 140 35 l 181 257 l 49 244 l 49 461 l 193 461 l 193 649 l 49 635 l 49 719 l 49 851 l 181 853 l 135 1068 m 381 649 l 381 461 l 554 461 l 544 651 l 381 649 z "},"$":{"ha":750,"x_min":26,"x_max":733,"o":"m 293 1226 l 442 1226 l 439 1129 q 482 1124 456 1128 q 540 1114 508 1121 q 608 1097 572 1107 q 679 1074 643 1088 l 685 813 q 571 872 636 846 q 443 908 506 899 l 449 710 q 718 360 733 569 q 449 129 699 206 l 454 -14 l 265 -14 l 269 114 q 210 115 242 114 q 146 117 178 115 q 85 124 114 119 q 36 136 57 129 q 36 169 36 154 q 39 211 36 183 q 56 329 46 286 q 76 403 67 372 q 117 378 89 392 q 168 358 144 365 q 235 347 204 349 q 286 349 265 346 l 297 582 q 31 910 26 688 q 304 1126 32 1094 q 305 1169 306 1143 q 293 1226 304 1196 m 306 913 q 267 910 290 917 q 229 886 244 903 q 211 828 206 861 q 235 776 217 796 q 272 750 251 760 q 303 739 293 740 l 306 913 m 447 360 q 483 363 465 357 q 514 378 500 368 q 535 404 528 389 q 543 436 543 419 q 515 507 543 472 q 447 551 486 542 l 447 360 z "},"%":{"ha":1115,"x_min":31,"x_max":1083,"o":"m 804 1085 l 972 1022 q 340 14 682 671 l 135 75 l 128 106 q 767 1081 528 604 l 804 1085 m 307 1071 q 413 1030 374 1071 q 465 931 453 989 q 471 847 472 893 q 450 763 469 800 q 393 693 429 722 q 314 649 357 664 q 262 636 289 640 q 207 633 235 632 q 153 642 179 635 q 104 665 126 650 q 49 742 67 693 q 33 840 31 792 q 307 1071 54 1093 m 210 908 q 190 881 197 897 q 183 847 183 865 q 186 812 182 829 q 201 782 190 794 q 227 763 211 769 q 261 756 243 757 q 297 758 279 754 q 328 774 315 763 q 347 799 340 783 q 356 833 354 815 q 353 869 357 851 q 338 899 349 886 q 310 918 326 911 q 276 926 294 925 q 240 924 258 928 q 210 908 222 919 m 883 468 q 1081 282 1072 442 q 1078 213 1083 250 q 1053 135 1074 175 q 1006 75 1033 94 q 935 40 978 56 q 899 33 919 35 q 859 34 879 32 q 820 41 839 36 q 788 53 801 46 q 737 85 761 67 q 694 126 713 104 q 664 174 675 147 q 654 232 653 200 q 883 468 656 468 m 806 339 q 792 319 797 332 q 783 293 786 307 q 779 265 779 279 q 782 242 779 251 q 812 197 792 214 q 860 174 832 179 q 908 179 889 168 q 939 210 928 190 q 953 253 950 231 q 954 293 957 276 q 941 324 951 308 q 915 346 931 339 q 859 360 888 361 q 806 339 831 360 z "},"*":{"ha":528,"x_min":18,"x_max":510,"o":"m 185 1160 l 299 1160 l 307 1040 l 418 1085 l 510 1024 l 324 946 l 456 828 l 315 779 l 238 889 l 149 779 l 67 828 l 158 953 l 18 1014 l 49 1089 l 176 1051 l 185 1160 z "},"+":{"ha":803,"x_min":28,"x_max":775,"o":"m 304 894 l 499 894 l 485 644 l 775 658 l 775 465 l 485 479 l 499 188 l 290 188 l 318 479 l 28 465 l 28 672 l 318 644 l 304 894 z "},"=":{"ha":747,"x_min":35,"x_max":724,"o":"m 56 803 q 135 782 86 792 q 228 768 183 772 q 306 763 271 764 q 374 762 342 761 q 438 764 407 763 q 504 768 469 765 q 603 783 557 772 q 678 803 650 793 l 692 596 l 35 596 q 36 651 35 622 q 40 708 38 681 q 45 760 42 736 q 56 803 49 785 m 692 492 q 710 448 700 475 q 722 390 721 421 q 722 345 724 369 q 713 301 719 321 q 633 306 672 304 q 553 308 593 308 q 417 306 488 308 q 277 301 346 304 q 145 294 208 299 q 35 285 82 290 l 36 469 q 124 463 74 465 q 228 458 174 460 q 340 456 283 457 q 449 458 397 456 q 549 465 510 461 q 615 474 589 469 q 658 483 642 479 q 692 492 675 488 z "},"@":{"ha":1324,"x_min":22,"x_max":1300,"o":"m 676 842 q 749 824 721 840 q 788 792 776 807 q 803 830 801 807 q 792 869 804 853 q 828 864 806 871 q 871 846 850 857 q 906 822 892 835 q 918 800 919 810 q 884 565 883 643 q 910 460 885 488 q 971 446 936 432 q 1029 514 1006 460 q 1032 685 1053 568 q 932 869 1011 801 q 735 965 853 938 q 505 956 618 992 q 328 851 392 919 q 251 674 264 782 q 263 461 239 565 q 372 261 288 357 q 616 135 456 165 q 939 170 776 104 q 1164 336 1101 236 l 1300 386 q 1187 184 1272 285 q 985 28 1101 83 q 670 -19 869 -28 q 331 54 471 -10 q 124 258 190 118 q 40 562 57 399 q 76 864 22 725 q 268 1085 131 1003 q 615 1173 406 1168 q 951 1086 824 1178 q 1122 896 1078 994 q 1184 687 1167 797 q 1172 476 1201 576 q 1081 342 1143 376 q 960 304 1018 307 q 870 324 903 301 q 829 396 838 347 q 782 309 822 347 q 658 255 742 271 q 515 254 574 239 q 415 340 457 269 q 362 517 372 411 q 383 694 351 622 q 500 806 414 765 q 676 842 586 846 m 706 750 q 588 727 631 763 q 546 616 546 692 q 565 485 546 540 q 598 419 585 431 q 654 416 611 408 q 719 451 697 424 q 738 593 742 479 q 706 750 733 707 z "},"[":{"ha":504,"x_min":36,"x_max":479,"o":"m 53 1176 l 93 1163 q 479 1182 263 1142 l 465 1104 l 454 953 q 225 967 313 967 q 228 90 193 574 q 471 90 326 69 l 465 14 l 458 -160 l 408 -143 q 100 -143 307 -118 l 65 -153 q 53 1176 36 594 z "},"]":{"ha":496,"x_min":15,"x_max":458,"o":"m 429 -168 l 390 -158 q 69 -164 188 -135 l 38 -175 l 32 7 l 24 72 q 268 72 168 51 q 269 938 304 560 q 40 925 182 938 l 26 1093 l 15 1151 q 414 1136 233 1111 l 442 1146 q 429 -168 458 571 z "},"\\":{"ha":706,"x_min":-26,"x_max":731,"o":"m 333 906 q 436 633 382 767 q 549 369 490 500 q 659 147 613 225 q 731 54 706 68 l 454 -40 q 457 -21 457 -35 q 403 193 457 36 q 240 613 350 350 q -26 1172 29 1121 l 243 1260 q 259 1143 236 1231 q 333 906 282 1056 z "},"^":{"ha":635,"x_min":24,"x_max":608,"o":"m 256 1146 l 364 1158 l 608 690 l 464 690 l 333 906 l 232 685 l 24 685 l 256 1146 z "},"{":{"ha":558,"x_min":22,"x_max":544,"o":"m 181 1144 l 206 1129 q 544 1143 326 1101 l 533 1050 l 536 943 l 358 950 q 339 739 353 831 q 208 497 325 647 q 340 289 322 367 q 357 46 357 211 l 533 57 l 526 -50 l 526 -168 l 501 -158 q 224 -154 368 -137 l 189 -167 l 185 131 q 144 369 175 299 q 22 490 114 439 q 146 622 118 560 q 183 900 174 685 l 181 1144 z "},"}":{"ha":556,"x_min":13,"x_max":535,"o":"m 374 900 q 411 622 383 685 q 535 490 439 560 q 413 369 443 439 q 372 131 382 299 l 368 -167 l 333 -154 q 56 -158 189 -137 l 31 -168 l 31 -50 l 24 57 l 200 46 q 217 289 200 211 q 349 497 235 367 q 218 725 232 647 q 199 950 204 803 l 21 943 l 21 1050 l 13 1143 q 351 1129 231 1101 l 376 1144 l 374 900 z "},"~":{"ha":721,"x_min":31,"x_max":690,"o":"m 31 686 q 214 737 118 736 q 450 678 310 738 q 690 715 590 619 l 690 525 q 424 499 547 463 q 244 541 300 536 q 31 460 188 546 l 31 686 z "},"|":{"ha":361,"x_min":68,"x_max":274,"o":"m 274 1132 l 274 -143 l 88 -143 l 68 404 l 68 1088 l 274 1132 z "},"T":{"ha":872,"x_min":35,"x_max":840,"o":"m 836 1204 l 840 938 l 458 957 l 501 61 l 221 22 l 268 861 l 42 842 l 35 1239 l 836 1204 z "},"E":{"ha":800,"x_min":26,"x_max":769,"o":"m 769 1225 l 754 1067 l 200 1085 l 200 921 l 560 921 l 588 732 l 308 732 l 322 354 l 722 350 l 743 11 l 63 -22 l 26 1219 l 769 1225 z "},"Q":{"ha":868,"x_min":53,"x_max":954,"o":"m 750 1110 q 779 1049 765 1103 q 803 894 793 996 q 817 699 813 801 q 821 478 821 596 q 816 265 821 353 q 799 131 811 178 q 878 18 799 115 q 953 -86 954 -81 q 881 -93 943 -108 l 697 -31 q 653 -53 688 -40 q 554 -76 619 -65 q 435 -89 492 -87 q 315 -90 378 -90 q 166 -78 229 -90 q 75 -43 103 -67 q 53 213 53 -25 q 78 750 53 471 q 104 983 92 901 q 132 1082 117 1065 q 181 1108 147 1094 q 272 1129 214 1121 q 391 1142 333 1139 q 508 1144 449 1144 q 651 1137 590 1144 q 750 1110 711 1129 m 529 842 q 463 838 489 842 q 429 826 438 833 q 412 765 419 819 q 396 611 404 711 q 385 436 389 524 q 381 261 381 349 q 384 152 381 190 q 394 106 388 114 q 564 61 422 61 q 624 65 600 61 q 660 79 649 68 q 682 271 682 88 q 678 436 682 351 q 667 615 675 521 q 652 758 660 708 q 640 818 644 807 q 529 842 621 842 z "},"U":{"ha":958,"x_min":22,"x_max":922,"o":"m 922 1218 l 901 182 q 891 114 904 149 q 854 61 878 79 q 801 29 828 42 q 738 4 774 17 q 633 -18 689 -12 q 515 -24 578 -24 q 399 -18 454 -24 q 290 0 343 -12 q 174 33 218 17 q 111 63 129 50 q 65 124 83 82 q 46 229 47 167 l 22 1107 l 297 1053 l 289 311 q 298 250 289 274 q 325 211 307 226 q 344 199 333 204 q 371 192 356 194 q 408 188 393 189 q 442 188 424 188 q 510 193 485 189 q 551 207 536 197 q 581 289 581 229 l 571 1200 l 922 1218 z "},"I":{"ha":386,"x_min":28,"x_max":354,"o":"m 289 764 l 354 -64 l 35 -60 l 72 786 l 289 764 m 28 1069 l 99 1168 l 354 1124 l 324 867 l 64 871 l 28 1069 z "},"C":{"ha":954,"x_min":31,"x_max":924,"o":"m 328 1058 q 309 916 315 997 q 300 743 303 835 q 300 588 297 674 q 311 415 303 503 q 315 370 314 390 q 319 329 317 350 q 326 285 322 308 q 336 229 329 261 q 384 203 356 215 q 465 188 413 190 q 510 189 493 186 q 539 196 526 192 l 556 393 l 918 383 q 920 297 924 356 q 907 172 917 238 q 899 129 903 149 q 891 92 896 110 q 880 58 886 75 q 867 21 874 40 q 671 33 767 28 q 467 50 575 38 q 349 67 407 57 q 240 90 290 78 q 151 114 190 101 q 93 138 113 126 q 67 224 78 174 q 50 324 57 275 q 42 383 46 353 q 36 449 39 414 q 32 524 33 483 q 31 615 31 565 q 37 808 31 728 q 49 928 43 889 q 74 1067 60 1007 q 99 1140 89 1128 q 474 1206 172 1171 q 653 1221 567 1217 q 828 1229 740 1225 q 852 1124 843 1176 q 868 1024 861 1072 q 879 915 876 971 q 886 803 882 858 l 546 792 q 553 828 550 813 q 558 856 556 843 q 560 882 560 869 q 564 910 561 894 q 570 978 568 943 q 571 1044 572 1013 q 510 1061 550 1056 q 433 1067 469 1067 q 381 1065 407 1067 q 328 1058 356 1064 z "},"K":{"ha":1029,"x_min":35,"x_max":997,"o":"m 704 1174 l 997 1132 l 582 468 l 936 -35 l 574 -32 l 428 393 l 218 379 l 228 1 l 42 -44 l 35 1057 l 379 1067 l 376 711 l 543 700 l 704 1174 z "},"R":{"ha":860,"x_min":40,"x_max":883,"o":"m 40 1181 q 178 1192 103 1188 q 326 1196 254 1197 q 431 1192 379 1194 q 535 1181 483 1189 q 592 1169 564 1175 q 647 1153 619 1164 q 721 1107 696 1132 q 763 1042 746 1082 q 804 738 804 939 q 802 693 804 717 q 798 649 800 669 q 794 613 796 628 q 792 593 792 597 q 759 471 782 522 q 690 392 736 419 l 883 -114 l 514 -131 l 426 307 l 236 307 l 236 -51 l 40 -54 q 52 166 47 50 q 60 399 57 282 q 64 627 64 515 q 63 833 64 739 q 53 1007 60 921 q 40 1181 47 1093 m 372 507 l 604 517 q 626 576 615 528 q 636 713 636 624 q 635 815 636 767 q 628 915 633 863 q 618 999 622 969 q 611 1039 614 1028 q 588 1056 607 1046 q 525 1065 569 1065 q 452 1065 488 1065 q 375 1058 417 1064 l 372 507 z "},"O":{"ha":951,"x_min":40,"x_max":914,"o":"m 794 1199 q 838 1131 815 1189 q 879 963 860 1072 q 896 847 889 906 q 907 729 903 788 q 913 616 911 671 q 913 514 914 561 q 892 256 907 357 q 838 103 876 156 q 794 85 832 96 q 689 68 757 75 q 544 56 617 61 q 400 51 472 51 q 196 65 274 51 q 90 111 118 79 q 51 248 63 139 q 40 547 40 357 q 44 757 40 657 q 57 951 47 857 q 78 1102 68 1047 q 101 1172 89 1157 q 258 1217 129 1196 q 393 1231 328 1228 q 525 1233 458 1233 q 689 1224 622 1233 q 794 1199 756 1215 m 561 903 q 400 944 524 944 q 306 924 324 944 q 285 851 294 913 q 264 679 275 790 q 249 488 253 575 q 244 331 244 400 q 247 272 244 292 q 251 244 249 251 q 449 211 278 211 q 586 232 569 211 q 603 442 603 253 q 599 589 603 517 q 592 732 596 661 q 561 903 582 882 z "},"W":{"ha":1151,"x_min":3,"x_max":1147,"o":"m 235 221 q 256 213 247 215 q 281 211 264 211 q 314 214 301 211 q 338 226 326 217 q 345 295 342 253 q 349 378 349 338 q 349 440 349 403 q 347 524 349 478 q 343 624 346 571 q 336 735 340 678 q 328 824 332 788 q 320 888 324 861 q 313 936 317 915 q 306 978 310 957 l 740 981 q 737 791 736 886 q 742 605 738 696 q 753 430 746 514 q 772 275 761 346 q 810 264 796 265 q 836 263 825 263 q 869 272 856 263 l 874 1110 l 1147 1126 q 1125 923 1138 1035 q 1098 693 1113 811 q 1067 458 1083 575 q 1035 240 1050 342 q 1006 60 1019 139 q 982 -60 992 -18 l 733 -56 q 689 36 707 -15 q 654 156 671 88 q 633 258 642 207 q 618 361 625 308 l 528 371 q 511 244 521 307 q 486 114 501 181 q 457 19 472 57 q 422 -43 442 -18 q 403 -47 411 -46 q 387 -50 396 -49 q 365 -52 378 -51 q 335 -53 353 -53 q 169 -28 217 -53 q 124 131 144 38 q 85 331 103 225 q 70 423 78 369 q 54 539 63 476 q 38 671 46 601 q 24 811 31 740 q 11 969 15 899 q 3 1115 7 1040 l 183 1128 q 184 951 185 1044 q 188 749 183 858 q 202 510 192 640 q 235 221 213 379 z "},"N":{"ha":988,"x_min":49,"x_max":961,"o":"m 356 1203 l 653 550 l 642 1197 l 961 1192 l 890 3 l 628 -24 l 279 888 l 279 -24 l 83 -28 l 110 896 l 51 896 l 49 1197 l 356 1203 z "},"F":{"ha":825,"x_min":67,"x_max":811,"o":"m 811 1171 l 796 836 l 417 854 l 417 690 l 668 686 l 658 518 l 306 525 l 306 -31 l 78 -46 l 67 1165 l 811 1171 z "},"X":{"ha":847,"x_min":-81,"x_max":850,"o":"m 631 1138 l 850 926 l 560 475 l 825 -74 l 590 -56 l 485 267 l 339 -51 l -81 -56 l 322 592 l -3 1138 l 204 1158 l 442 714 l 631 1138 z "},"J":{"ha":914,"x_min":28,"x_max":879,"o":"m 850 1160 l 879 -15 q 658 -39 767 -31 q 439 -47 550 -47 q 100 -3 168 -47 q 49 221 74 57 q 32 368 36 304 q 31 475 28 432 l 436 501 l 431 397 l 426 243 q 440 136 426 150 q 501 124 464 131 q 589 108 539 117 l 674 985 q 449 931 569 951 q 221 906 329 910 l 224 1171 l 850 1160 z "},"M":{"ha":1076,"x_min":43,"x_max":1047,"o":"m 417 1125 l 558 468 l 590 468 l 739 1185 l 1011 1171 l 1047 -75 l 753 -79 l 794 467 l 756 510 l 596 -79 l 528 -79 l 343 824 l 296 782 l 335 -56 l 43 -60 l 90 803 l 43 826 l 43 1118 l 403 1125 l 417 1125 z "},"P":{"ha":832,"x_min":44,"x_max":804,"o":"m 624 1229 q 672 1212 646 1225 q 731 1169 699 1199 q 768 1108 754 1146 q 788 1029 782 1069 q 802 863 800 933 q 804 718 804 792 q 778 419 804 525 q 731 319 760 342 q 685 301 718 311 q 582 282 651 290 q 498 275 542 278 q 410 274 454 272 l 407 19 l 44 -1 l 44 1225 l 383 1240 q 504 1242 443 1243 q 624 1229 565 1240 m 432 1071 q 403 1101 424 1090 q 342 1113 382 1113 l 236 1106 l 224 413 l 303 404 q 431 439 388 404 q 446 488 442 450 q 453 592 450 525 q 454 731 456 658 q 453 871 453 803 q 451 922 453 893 q 448 980 450 951 q 442 1033 446 1008 q 432 1071 438 1057 z "},"V":{"ha":850,"x_min":-17,"x_max":849,"o":"m 283 1199 q 315 960 299 1071 q 347 750 332 849 q 420 380 385 515 q 485 203 456 244 q 553 512 501 249 q 692 1260 604 775 l 849 1193 l 740 643 q 583 -31 624 72 l 397 -19 l 208 -7 q 115 422 171 128 q -17 1178 60 717 l 283 1199 z "},"L":{"ha":753,"x_min":26,"x_max":718,"o":"m 706 372 l 718 3 l 54 -11 l 26 1249 l 294 1194 l 225 265 l 706 372 z "},"A":{"ha":975,"x_min":29,"x_max":950,"o":"m 767 1185 l 950 -54 l 604 -69 l 599 235 l 301 235 l 296 -28 l 29 -35 l 267 858 l 113 847 l 119 1161 l 767 1185 m 628 942 l 486 931 l 424 456 l 717 474 l 628 942 z "},"Z":{"ha":924,"x_min":13,"x_max":894,"o":"m 804 1208 l 818 747 l 310 314 l 874 351 l 894 -7 l 44 15 l 83 374 l 610 956 l 68 918 l 13 1207 l 804 1208 z "},"Y":{"ha":910,"x_min":32,"x_max":879,"o":"m 392 1196 q 382 1026 394 1126 q 340 796 369 926 q 296 574 310 661 q 282 446 282 486 q 288 378 282 407 q 310 328 294 349 q 408 299 335 299 q 479 304 443 299 q 554 318 515 310 q 643 356 629 338 q 650 385 649 363 q 651 449 651 408 q 644 643 651 540 q 617 863 636 746 q 598 958 607 919 q 579 1024 589 996 q 560 1073 569 1051 q 539 1118 550 1094 l 865 1119 q 876 1017 872 1072 q 879 899 879 961 q 858 539 879 719 q 833 391 844 450 q 808 297 822 332 q 772 267 804 285 q 699 236 739 249 l 608 210 l 617 -94 l 282 -101 l 294 208 q 243 213 268 211 q 190 221 218 214 q 127 241 158 228 q 82 272 96 254 q 32 714 32 344 q 37 1008 32 892 q 53 1182 42 1125 l 392 1196 z "},"D":{"ha":956,"x_min":44,"x_max":914,"o":"m 206 1238 q 376 1233 288 1238 q 546 1214 464 1228 q 701 1180 636 1199 q 832 1142 767 1161 q 850 1063 842 1101 q 866 982 858 1024 q 880 893 874 940 q 893 792 886 846 q 904 669 900 735 q 910 542 908 604 q 913 425 913 479 q 914 336 914 371 q 908 212 914 269 q 893 106 903 154 q 708 43 828 74 q 415 -7 589 13 q 240 -23 326 -17 q 61 -35 154 -29 l 44 1225 q 123 1235 81 1232 q 206 1238 165 1238 m 625 956 q 521 978 576 971 q 401 992 465 985 l 369 169 q 429 160 397 161 q 492 161 461 158 q 592 172 550 164 q 661 194 633 179 q 688 294 674 214 q 714 517 701 374 q 724 742 725 646 q 717 889 724 838 q 697 926 714 911 q 625 956 681 942 z "},"G":{"ha":931,"x_min":25,"x_max":896,"o":"m 736 1226 q 759 1200 754 1221 q 764 1121 764 1179 q 763 1021 764 1069 q 761 913 761 972 q 760 867 761 889 q 761 838 758 846 l 611 843 q 613 878 611 856 q 613 924 614 900 q 607 967 611 947 q 593 993 603 986 q 524 1015 561 1013 q 447 1017 486 1017 q 383 1004 417 1017 q 368 935 375 1000 q 361 742 361 871 q 362 549 361 646 q 367 361 363 453 q 371 254 369 308 q 376 147 372 200 q 561 118 439 118 q 594 119 578 118 q 628 128 610 121 l 635 261 q 633 303 635 285 q 621 326 631 322 q 576 334 600 336 q 529 329 553 332 q 518 388 521 357 q 515 453 515 418 q 524 558 515 508 l 874 588 l 896 -4 q 745 -20 817 -15 q 599 -25 674 -25 q 43 54 190 -25 q 25 183 25 64 q 50 649 25 307 l 71 1076 q 69 1147 71 1117 q 63 1185 67 1176 q 589 1238 188 1238 q 663 1238 625 1238 q 736 1226 701 1238 z "},"S":{"ha":858,"x_min":28,"x_max":832,"o":"m 797 1175 l 786 828 q 368 964 518 964 q 232 828 232 964 q 242 801 232 815 q 270 774 253 788 q 310 748 288 760 q 356 726 332 736 l 606 613 q 726 534 682 569 q 792 458 769 499 q 822 380 813 421 q 832 296 832 339 q 813 197 832 246 q 753 115 794 149 q 670 64 718 81 q 571 47 622 47 l 39 25 l 51 375 q 228 334 144 350 q 390 318 313 318 q 534 342 483 318 q 585 408 585 367 q 469 511 585 463 q 356 556 413 535 q 243 601 299 576 q 69 746 104 664 q 37 849 46 797 q 28 953 28 901 q 60 1107 28 1046 q 153 1201 93 1168 q 247 1227 194 1218 q 368 1236 299 1236 q 586 1222 478 1236 q 797 1175 694 1208 z "}}}
